<svg xmlns="http://www.w3.org/2000/svg" xmlns:xlink="http://www.w3.org/1999/xlink" width="1024" zoomAndPan="magnify" viewBox="0 0 768 239.249991" height="319" preserveAspectRatio="xMidYMid meet" version="1.0"><defs><g/><clipPath id="d76d27ce64"><path d="M 155.15625 202.050781 L 180.359375 202.050781 L 180.359375 227.253906 L 155.15625 227.253906 Z M 155.15625 202.050781 " clip-rule="nonzero"/></clipPath><clipPath id="c46a3ca4e6"><path d="M 167.757812 202.050781 C 160.796875 202.050781 155.15625 207.691406 155.15625 214.652344 C 155.15625 221.613281 160.796875 227.253906 167.757812 227.253906 C 174.71875 227.253906 180.359375 221.613281 180.359375 214.652344 C 180.359375 207.691406 174.71875 202.050781 167.757812 202.050781 Z M 167.757812 202.050781 " clip-rule="nonzero"/></clipPath></defs><g fill="#ffffff" fill-opacity="1"><g transform="translate(1.200014, 164.360601)"><g><path d="M 91.117188 -107.5625 C 98.929688 -107.5625 106.019531 -105.136719 112.382812 -100.285156 C 118.75 -95.433594 123.820312 -88.941406 127.601562 -80.816406 C 131.382812 -72.6875 133.273438 -63.644531 133.273438 -53.6875 C 133.273438 -43.855469 131.382812 -34.878906 127.601562 -26.75 C 123.820312 -18.621094 118.75 -12.128906 112.382812 -7.277344 C 106.019531 -2.425781 98.929688 0 91.117188 0 C 85.445312 0 80.5625 -0.914062 76.464844 -2.742188 C 72.371094 -4.570312 68.9375 -6.835938 66.164062 -9.546875 C 63.390625 -12.257812 61.21875 -14.964844 59.640625 -17.675781 C 58.066406 -20.386719 56.933594 -22.652344 56.238281 -24.480469 C 55.546875 -26.308594 55.199219 -27.222656 55.199219 -27.222656 L 55.199219 9.074219 C 55.199219 13.988281 55.515625 17.613281 56.144531 19.945312 C 56.773438 22.273438 57.59375 23.882812 58.601562 24.765625 L 9.074219 24.765625 C 10.207031 23.882812 11.058594 22.273438 11.625 19.945312 C 12.191406 17.613281 12.476562 13.988281 12.476562 9.074219 L 12.476562 -94.519531 C 12.476562 -96.914062 11.4375 -98.742188 9.359375 -100.003906 C 7.277344 -101.261719 5.417969 -101.074219 3.78125 -99.433594 C 6.425781 -102.332031 9.609375 -104.601562 13.328125 -106.242188 C 17.046875 -107.878906 20.855469 -108.636719 24.765625 -108.507812 C 32.199219 -108.507812 38.722656 -106.175781 44.328125 -101.515625 C 49.9375 -96.851562 53.371094 -90.929688 54.632812 -83.746094 C 56.902344 -87.398438 59.707031 -91.054688 63.042969 -94.710938 C 66.382812 -98.363281 70.386719 -101.421875 75.050781 -103.878906 C 79.710938 -106.335938 85.066406 -107.5625 91.117188 -107.5625 Z M 67.296875 -18.527344 C 71.332031 -18.527344 75.113281 -19.976562 78.640625 -22.875 C 82.167969 -25.773438 85.066406 -29.867188 87.335938 -35.160156 C 89.605469 -40.453125 90.738281 -46.628906 90.738281 -53.6875 C 90.738281 -59.234375 90.046875 -64.148438 88.660156 -68.433594 C 87.273438 -72.71875 85.445312 -76.371094 83.175781 -79.398438 C 78.515625 -85.699219 72.90625 -88.847656 66.351562 -88.847656 L 65.785156 -88.847656 C 61.5 -88.597656 57.847656 -86.769531 54.820312 -83.367188 C 54.949219 -82.484375 55.042969 -81.601562 55.105469 -80.71875 C 55.167969 -79.839844 55.199219 -78.957031 55.199219 -78.074219 L 55.199219 -32.515625 C 55.199219 -28.480469 56.492188 -25.140625 59.074219 -22.496094 C 61.660156 -19.847656 64.398438 -18.527344 67.296875 -18.527344 Z M 67.296875 -18.527344 "/></g></g></g><g fill="#ffffff" fill-opacity="1"><g transform="translate(138.253857, 164.360601)"><g><path d="M 63.707031 -107.5625 C 71.140625 -107.5625 78.105469 -106.175781 84.59375 -103.40625 C 91.085938 -100.632812 96.820312 -96.757812 101.796875 -91.777344 C 106.777344 -86.800781 110.652344 -81.066406 113.425781 -74.578125 C 116.195312 -68.085938 117.582031 -61.121094 117.582031 -53.6875 C 117.582031 -46.25 116.195312 -39.289062 113.425781 -32.796875 C 110.652344 -26.308594 106.777344 -20.605469 101.796875 -15.691406 C 96.820312 -10.773438 91.085938 -6.929688 84.59375 -4.160156 C 78.105469 -1.386719 71.140625 0 63.707031 0 L 57.46875 0 C 50.03125 0 43.070312 -1.386719 36.578125 -4.160156 C 30.089844 -6.929688 24.386719 -10.773438 19.472656 -15.691406 C 14.554688 -20.605469 10.710938 -26.308594 7.941406 -32.796875 C 5.167969 -39.289062 3.78125 -46.25 3.78125 -53.6875 C 3.78125 -61.121094 5.167969 -68.085938 7.941406 -74.578125 C 10.710938 -81.066406 14.554688 -86.800781 19.472656 -91.777344 C 24.386719 -96.757812 30.089844 -100.632812 36.578125 -103.40625 C 43.070312 -106.175781 50.03125 -107.5625 57.46875 -107.5625 Z M 74.859375 -14.746094 L 74.859375 -92.628906 C 74.859375 -96.664062 73.472656 -100.035156 70.699219 -102.742188 C 67.929688 -105.453125 64.589844 -106.808594 60.683594 -106.808594 C 56.773438 -106.808594 53.433594 -105.453125 50.664062 -102.742188 C 47.890625 -100.035156 46.503906 -96.664062 46.503906 -92.628906 L 46.503906 -14.746094 C 46.503906 -10.839844 47.890625 -7.5 50.664062 -4.726562 C 53.433594 -1.953125 56.773438 -0.566406 60.683594 -0.566406 C 64.589844 -0.566406 67.929688 -1.953125 70.699219 -4.726562 C 73.472656 -7.5 74.859375 -10.839844 74.859375 -14.746094 Z M 74.859375 -14.746094 "/></g></g></g><g fill="#ffffff" fill-opacity="1"><g transform="translate(259.617415, 164.360601)"><g><path d="M 3.78125 0 C 4.789062 -0.882812 5.609375 -2.488281 6.238281 -4.820312 C 6.867188 -7.152344 7.183594 -10.773438 7.183594 -15.691406 L 7.183594 -116.636719 C 7.183594 -121.554688 6.867188 -125.175781 6.238281 -127.507812 C 5.609375 -129.839844 4.789062 -131.445312 3.78125 -132.328125 L 53.308594 -132.328125 C 52.175781 -131.445312 51.324219 -129.839844 50.757812 -127.507812 C 50.191406 -125.175781 49.90625 -121.554688 49.90625 -116.636719 L 49.90625 -15.691406 C 49.90625 -10.773438 50.191406 -7.152344 50.757812 -4.820312 C 51.324219 -2.488281 52.175781 -0.882812 53.308594 0 Z M 3.78125 0 "/></g></g></g><g fill="#ffffff" fill-opacity="1"><g transform="translate(316.707455, 164.360601)"><g><path d="M 125.523438 -17.769531 C 125.902344 -16.382812 126.71875 -15.28125 127.980469 -14.460938 C 129.242188 -13.640625 130.59375 -13.296875 132.042969 -13.421875 C 133.492188 -13.546875 134.535156 -14.242188 135.164062 -15.5 C 133.273438 -11.59375 130.625 -8.378906 127.222656 -5.859375 C 123.820312 -3.339844 119.976562 -1.574219 115.691406 -0.566406 C 110.398438 0.441406 105.296875 0.15625 100.378906 -1.417969 C 95.464844 -2.992188 91.179688 -5.640625 87.527344 -9.359375 C 83.871094 -13.074219 81.351562 -17.582031 79.964844 -22.875 L 78.261719 -29.113281 C 77.882812 -25.710938 76.9375 -22.496094 75.425781 -19.472656 C 72.148438 -12.792969 67.675781 -7.65625 62.003906 -4.0625 C 56.332031 -0.472656 50.253906 1.667969 43.761719 2.363281 C 37.273438 3.054688 31.097656 2.300781 25.238281 0.09375 C 19.375 -2.109375 14.460938 -5.640625 10.492188 -10.492188 C 6.523438 -15.34375 4.347656 -21.488281 3.96875 -28.921875 C 3.71875 -34.972656 5.007812 -40.046875 7.84375 -44.140625 C 10.679688 -48.238281 14.460938 -51.578125 19.1875 -54.160156 C 23.914062 -56.742188 28.953125 -58.726562 34.3125 -60.113281 C 39.667969 -61.5 44.738281 -62.476562 49.527344 -63.042969 C 54.316406 -63.613281 58.253906 -63.957031 61.34375 -64.085938 C 64.429688 -64.210938 65.976562 -64.273438 65.976562 -64.273438 L 68.621094 -64.273438 L 63.515625 -82.421875 C 62.382812 -86.832031 60.050781 -90.109375 56.523438 -92.25 C 52.996094 -94.394531 49.183594 -95.308594 45.085938 -94.992188 C 40.988281 -94.675781 37.429688 -92.820312 34.40625 -89.414062 C 39.066406 -94.710938 44.394531 -98.585938 50.378906 -101.042969 C 56.367188 -103.5 62.476562 -104.664062 68.714844 -104.539062 C 74.953125 -104.414062 80.941406 -103.027344 86.675781 -100.378906 C 92.410156 -97.734375 97.386719 -93.984375 101.609375 -89.132812 C 105.832031 -84.28125 108.886719 -78.453125 110.777344 -71.644531 L 118.71875 -42.910156 Z M 65.785156 -15.125 C 70.070312 -15.753906 73.285156 -17.832031 75.425781 -21.363281 C 77.820312 -24.890625 78.386719 -28.734375 77.128906 -32.894531 L 68.621094 -63.707031 C 64.085938 -62.570312 60.082031 -60.335938 56.617188 -56.996094 C 53.152344 -53.65625 50.535156 -49.75 48.773438 -45.273438 C 47.007812 -40.800781 46.25 -36.105469 46.503906 -31.191406 C 46.757812 -26.65625 48.582031 -22.8125 51.984375 -19.660156 C 55.390625 -16.507812 59.421875 -14.933594 64.085938 -14.933594 C 64.839844 -14.933594 65.40625 -14.996094 65.785156 -15.125 Z M 65.785156 -15.125 "/></g></g></g><g fill="#ffffff" fill-opacity="1"><g transform="translate(446.010681, 164.360601)"><g><path d="M 75.804688 -106.242188 L 57.277344 -106.242188 L 57.277344 -15.691406 C 57.277344 -10.773438 57.59375 -7.152344 58.222656 -4.820312 C 58.855469 -2.488281 59.671875 -0.882812 60.683594 0 L 11.152344 0 C 12.289062 -0.882812 13.136719 -2.488281 13.707031 -4.820312 C 14.273438 -7.152344 14.554688 -10.773438 14.554688 -15.691406 L 14.554688 -106.242188 L 3.78125 -106.242188 L 3.78125 -106.996094 L 14.554688 -106.996094 C 14.683594 -118.085938 15.816406 -127.191406 17.957031 -134.3125 C 20.101562 -141.433594 23.1875 -146.945312 27.222656 -150.855469 C 33.648438 -157.027344 41.148438 -160.117188 49.71875 -160.117188 C 58.414062 -160.367188 65.660156 -157.09375 71.457031 -150.285156 L 58.601562 -126.847656 C 58.601562 -126.847656 58.003906 -127.886719 56.804688 -129.964844 C 55.609375 -132.042969 53.9375 -134.535156 51.796875 -137.433594 C 49.65625 -140.332031 47.132812 -142.976562 44.234375 -145.371094 C 43.101562 -146.253906 41.558594 -147.261719 39.605469 -148.394531 C 37.652344 -149.53125 35.664062 -150.414062 33.648438 -151.042969 C 31.632812 -151.671875 29.898438 -151.671875 28.449219 -151.042969 C 27 -150.414062 26.277344 -148.835938 26.277344 -146.316406 C 26.277344 -141.023438 27.726562 -135.984375 30.625 -131.195312 C 33.523438 -126.40625 37.367188 -122.214844 42.15625 -118.621094 C 46.945312 -115.03125 52.269531 -112.195312 58.128906 -110.117188 C 63.988281 -108.035156 69.882812 -106.996094 75.804688 -106.996094 Z M 75.804688 -106.242188 "/></g></g></g><g fill="#ffffff" fill-opacity="1"><g transform="translate(522.004704, 164.360601)"><g><path d="M 3.78125 0 C 4.789062 -0.882812 5.609375 -2.488281 6.238281 -4.820312 C 6.867188 -7.152344 7.183594 -10.773438 7.183594 -15.691406 L 7.183594 -116.636719 C 7.183594 -121.554688 6.867188 -125.175781 6.238281 -127.507812 C 5.609375 -129.839844 4.789062 -131.445312 3.78125 -132.328125 L 53.308594 -132.328125 C 52.175781 -131.445312 51.324219 -129.839844 50.757812 -127.507812 C 50.191406 -125.175781 49.90625 -121.554688 49.90625 -116.636719 L 49.90625 -15.691406 C 49.90625 -10.773438 50.191406 -7.152344 50.757812 -4.820312 C 51.324219 -2.488281 52.175781 -0.882812 53.308594 0 Z M 3.78125 0 "/></g></g></g><g fill="#ffffff" fill-opacity="1"><g transform="translate(579.094745, 164.360601)"><g><path d="M 28.546875 -110.964844 C 22.621094 -110.964844 17.582031 -113.046875 13.421875 -117.203125 C 9.261719 -121.363281 7.183594 -126.40625 7.183594 -132.328125 C 7.183594 -136.234375 8.128906 -139.796875 10.019531 -143.007812 C 11.910156 -146.222656 14.492188 -148.804688 17.769531 -150.757812 C 21.046875 -152.710938 24.636719 -153.691406 28.546875 -153.691406 C 32.453125 -153.691406 36.011719 -152.710938 39.226562 -150.757812 C 42.441406 -148.804688 45.023438 -146.222656 46.976562 -143.007812 C 48.929688 -139.796875 49.90625 -136.234375 49.90625 -132.328125 C 49.90625 -126.40625 47.828125 -121.363281 43.667969 -117.203125 C 39.257812 -113.046875 34.214844 -110.964844 28.546875 -110.964844 Z M 49.90625 -15.691406 C 49.90625 -10.773438 50.191406 -7.152344 50.757812 -4.820312 C 51.324219 -2.488281 52.175781 -0.882812 53.308594 0 L 3.78125 0 C 4.789062 -0.882812 5.609375 -2.488281 6.238281 -4.820312 C 6.867188 -7.152344 7.183594 -10.773438 7.183594 -15.691406 L 7.183594 -105.296875 C 7.183594 -105.296875 8.035156 -104.570312 9.734375 -103.121094 C 11.4375 -101.671875 14.082031 -100.316406 17.675781 -99.058594 C 21.265625 -97.796875 25.960938 -97.542969 31.757812 -98.300781 C 34.910156 -98.679688 38.027344 -99.371094 41.117188 -100.378906 C 44.203125 -101.386719 47.132812 -102.585938 49.90625 -103.972656 Z M 49.90625 -15.691406 "/></g></g></g><g fill="#ffffff" fill-opacity="1"><g transform="translate(636.184785, 164.360601)"><g><path d="M 73.914062 0 C 74.921875 -0.253906 75.617188 -0.757812 75.992188 -1.511719 C 76.246094 -2.519531 76.121094 -3.339844 75.617188 -3.96875 L 46.125 -46.691406 L 31.570312 -29.300781 C 30.433594 -27.535156 29.523438 -25.300781 28.828125 -22.589844 C 28.136719 -19.878906 27.976562 -17.046875 28.355469 -14.082031 C 28.734375 -11.121094 29.898438 -8.378906 31.851562 -5.859375 C 33.808594 -3.339844 36.738281 -1.386719 40.644531 0 L 6.425781 0 L 45.746094 -47.261719 L 3.78125 -107.5625 L 52.742188 -107.5625 C 51.859375 -107.3125 51.230469 -106.746094 50.851562 -105.863281 C 50.472656 -104.980469 50.601562 -104.222656 51.230469 -103.59375 L 77.316406 -65.785156 L 87.902344 -78.261719 C 89.039062 -80.027344 89.921875 -82.265625 90.550781 -84.972656 C 91.179688 -87.683594 91.304688 -90.519531 90.929688 -93.480469 C 90.550781 -96.441406 89.414062 -99.214844 87.527344 -101.796875 C 85.636719 -104.382812 82.671875 -106.304688 78.640625 -107.5625 L 112.855469 -107.5625 L 77.695312 -65.21875 L 123.066406 0 Z M 73.914062 0 "/></g></g></g><g fill="#ffffff" fill-opacity="1"><g transform="translate(763.080532, 164.360601)"><g/></g></g><g fill="#ffffff" fill-opacity="1"><g transform="translate(197.248985, 225.044179)"><g><path d="M 14.421875 -16.117188 C 14.195312 -16.386719 13.886719 -16.644531 13.503906 -16.894531 C 13.121094 -17.144531 12.691406 -17.367188 12.210938 -17.570312 C 11.730469 -17.769531 11.210938 -17.933594 10.644531 -18.058594 C 10.082031 -18.183594 9.492188 -18.246094 8.878906 -18.246094 C 7.308594 -18.246094 6.148438 -17.949219 5.402344 -17.355469 C 4.65625 -16.761719 4.28125 -15.945312 4.28125 -14.914062 C 4.28125 -14.183594 4.472656 -13.609375 4.855469 -13.1875 C 5.238281 -12.765625 5.828125 -12.421875 6.621094 -12.152344 C 7.417969 -11.886719 8.429688 -11.609375 9.652344 -11.320312 C 11.070312 -11.015625 12.296875 -10.640625 13.332031 -10.199219 C 14.367188 -9.757812 15.160156 -9.171875 15.714844 -8.433594 C 16.273438 -7.695312 16.550781 -6.714844 16.550781 -5.488281 C 16.550781 -4.511719 16.363281 -3.664062 15.988281 -2.945312 C 15.617188 -2.226562 15.09375 -1.632812 14.421875 -1.164062 C 13.753906 -0.695312 12.96875 -0.347656 12.066406 -0.128906 C 11.167969 0.0898438 10.191406 0.199219 9.136719 0.199219 C 8.101562 0.199219 7.09375 0.0898438 6.105469 -0.128906 C 5.121094 -0.347656 4.183594 -0.671875 3.304688 -1.09375 C 2.421875 -1.511719 1.597656 -2.039062 0.832031 -2.671875 L 2.070312 -4.855469 C 2.375 -4.53125 2.773438 -4.210938 3.261719 -3.894531 C 3.75 -3.578125 4.304688 -3.285156 4.925781 -3.015625 C 5.550781 -2.75 6.226562 -2.535156 6.953125 -2.371094 C 7.679688 -2.207031 8.429688 -2.125 9.195312 -2.125 C 10.648438 -2.125 11.78125 -2.390625 12.585938 -2.917969 C 13.390625 -3.441406 13.792969 -4.214844 13.792969 -5.230469 C 13.792969 -5.996094 13.566406 -6.609375 13.117188 -7.066406 C 12.667969 -7.527344 12 -7.910156 11.121094 -8.21875 C 10.238281 -8.523438 9.164062 -8.832031 7.902344 -9.136719 C 6.523438 -9.480469 5.363281 -9.859375 4.425781 -10.273438 C 3.484375 -10.683594 2.78125 -11.226562 2.3125 -11.894531 C 1.84375 -12.566406 1.609375 -13.4375 1.609375 -14.511719 C 1.609375 -15.8125 1.925781 -16.914062 2.558594 -17.8125 C 3.1875 -18.714844 4.0625 -19.394531 5.171875 -19.855469 C 6.28125 -20.3125 7.539062 -20.542969 8.9375 -20.542969 C 9.855469 -20.542969 10.710938 -20.449219 11.507812 -20.257812 C 12.300781 -20.066406 13.042969 -19.796875 13.734375 -19.453125 C 14.421875 -19.105469 15.054688 -18.695312 15.628906 -18.214844 Z M 14.421875 -16.117188 "/></g></g></g><g fill="#ffffff" fill-opacity="1"><g transform="translate(219.053528, 225.044179)"><g><path d="M 17.152344 -18.101562 L 10.113281 -18.101562 L 10.113281 0 L 7.527344 0 L 7.527344 -18.101562 L 0.488281 -18.101562 L 0.488281 -20.398438 L 17.152344 -20.398438 Z M 17.152344 -18.101562 "/></g></g></g><g fill="#ffffff" fill-opacity="1"><g transform="translate(241.001703, 225.044179)"><g><path d="M 2.441406 0 L 2.441406 -20.398438 L 11.175781 -20.398438 C 12.078125 -20.398438 12.902344 -20.214844 13.648438 -19.839844 C 14.394531 -19.464844 15.046875 -18.96875 15.601562 -18.34375 C 16.15625 -17.722656 16.589844 -17.023438 16.894531 -16.25 C 17.199219 -15.472656 17.355469 -14.683594 17.355469 -13.878906 C 17.355469 -12.9375 17.175781 -12.046875 16.824219 -11.207031 C 16.46875 -10.363281 15.96875 -9.644531 15.328125 -9.050781 C 14.6875 -8.457031 13.933594 -8.046875 13.074219 -7.816406 L 18.015625 0 L 15.085938 0 L 10.429688 -7.328125 L 5.027344 -7.328125 L 5.027344 0 Z M 5.027344 -9.625 L 11.207031 -9.625 C 11.914062 -9.625 12.53125 -9.820312 13.058594 -10.214844 C 13.585938 -10.605469 13.996094 -11.128906 14.292969 -11.78125 C 14.589844 -12.429688 14.738281 -13.128906 14.738281 -13.878906 C 14.738281 -14.644531 14.566406 -15.347656 14.222656 -15.988281 C 13.878906 -16.632812 13.425781 -17.144531 12.871094 -17.527344 C 12.316406 -17.910156 11.703125 -18.101562 11.035156 -18.101562 L 5.027344 -18.101562 Z M 5.027344 -9.625 "/></g></g></g><g fill="#ffffff" fill-opacity="1"><g transform="translate(264.185102, 225.044179)"><g><path d="M 16.292969 -2.296875 L 16.292969 0 L 2.441406 0 L 2.441406 -20.398438 L 16.03125 -20.398438 L 16.03125 -18.101562 L 5.027344 -18.101562 L 5.027344 -11.492188 L 14.597656 -11.492188 L 14.597656 -9.339844 L 5.027344 -9.339844 L 5.027344 -2.296875 Z M 16.292969 -2.296875 "/></g></g></g><g fill="#ffffff" fill-opacity="1"><g transform="translate(285.874729, 225.044179)"><g><path d="M 8.648438 -20.398438 L 10.832031 -20.398438 L 19.164062 0 L 16.40625 0 L 13.992188 -5.976562 L 5.429688 -5.976562 L 3.046875 0 L 0.289062 0 Z M 13.417969 -7.988281 L 9.742188 -17.410156 L 5.949219 -7.988281 Z M 13.417969 -7.988281 "/></g></g></g><g fill="#ffffff" fill-opacity="1"><g transform="translate(309.632664, 225.044179)"><g><path d="M 20.082031 0 L 20.082031 -15.574219 L 13.359375 -3.589844 L 11.78125 -3.589844 L 5.027344 -15.574219 L 5.027344 0 L 2.441406 0 L 2.441406 -20.398438 L 5.171875 -20.398438 L 12.554688 -7.15625 L 19.96875 -20.398438 L 22.667969 -20.398438 L 22.667969 0 Z M 20.082031 0 "/></g></g></g><g fill="#ffffff" fill-opacity="1"><g transform="translate(339.049688, 225.044179)"><g><path d="M 2.441406 -20.398438 L 5.027344 -20.398438 L 5.027344 0 L 2.441406 0 Z M 2.441406 -20.398438 "/></g></g></g><g fill="#ffffff" fill-opacity="1"><g transform="translate(350.82873, 225.044179)"><g><path d="M 5.027344 -15.628906 L 5.027344 0 L 2.441406 0 L 2.441406 -20.398438 L 4.625 -20.398438 L 17.097656 -4.453125 L 17.097656 -20.371094 L 19.683594 -20.371094 L 19.683594 0 L 17.324219 0 Z M 5.027344 -15.628906 "/></g></g></g><g fill="#ffffff" fill-opacity="1"><g transform="translate(377.258209, 225.044179)"><g><path d="M 10.632812 0.144531 C 9.289062 0.144531 8.039062 -0.148438 6.882812 -0.734375 C 5.722656 -1.316406 4.710938 -2.101562 3.851562 -3.089844 C 2.988281 -4.074219 2.316406 -5.1875 1.839844 -6.421875 C 1.359375 -7.65625 1.121094 -8.9375 1.121094 -10.257812 C 1.121094 -11.636719 1.359375 -12.945312 1.839844 -14.179688 C 2.316406 -15.414062 2.984375 -16.511719 3.835938 -17.46875 C 4.6875 -18.425781 5.695312 -19.179688 6.851562 -19.726562 C 8.011719 -20.269531 9.269531 -20.542969 10.632812 -20.542969 C 12.605469 -20.542969 14.230469 -20.132812 15.515625 -19.308594 C 16.800781 -18.484375 17.765625 -17.410156 18.417969 -16.089844 L 16.433594 -14.710938 C 15.839844 -15.898438 15.027344 -16.78125 13.992188 -17.355469 C 12.957031 -17.929688 11.820312 -18.214844 10.574219 -18.214844 C 9.539062 -18.214844 8.601562 -17.996094 7.757812 -17.554688 C 6.914062 -17.113281 6.191406 -16.515625 5.589844 -15.757812 C 4.984375 -15.003906 4.523438 -14.144531 4.210938 -13.1875 C 3.894531 -12.230469 3.734375 -11.234375 3.734375 -10.199219 C 3.734375 -9.109375 3.914062 -8.078125 4.265625 -7.109375 C 4.621094 -6.144531 5.125 -5.292969 5.773438 -4.554688 C 6.425781 -3.816406 7.183594 -3.238281 8.046875 -2.816406 C 8.90625 -2.394531 9.835938 -2.183594 10.832031 -2.183594 C 12 -2.183594 13.113281 -2.480469 14.164062 -3.074219 C 15.21875 -3.667969 16.214844 -4.578125 17.152344 -5.804688 L 17.152344 -3.132812 C 15.3125 -0.949219 13.140625 0.144531 10.632812 0.144531 Z M 16.835938 -8.21875 L 12.441406 -8.21875 L 12.441406 -10.171875 L 19.019531 -10.171875 L 19.019531 0 L 16.835938 0 Z M 16.835938 -8.21875 "/></g></g></g><g fill="#ffffff" fill-opacity="1"><g transform="translate(402.079012, 225.044179)"><g/></g></g><g fill="#ffffff" fill-opacity="1"><g transform="translate(413.656982, 225.044179)"><g><path d="M 2.441406 0 L 2.441406 -20.398438 L 9.511719 -20.398438 C 11.695312 -20.398438 13.519531 -19.945312 14.984375 -19.035156 C 16.449219 -18.125 17.546875 -16.898438 18.273438 -15.359375 C 19 -13.816406 19.367188 -12.105469 19.367188 -10.230469 C 19.367188 -8.160156 18.964844 -6.359375 18.160156 -4.828125 C 17.355469 -3.292969 16.214844 -2.105469 14.738281 -1.265625 C 13.265625 -0.421875 11.523438 0 9.511719 0 Z M 16.75 -10.230469 C 16.75 -11.761719 16.46875 -13.121094 15.902344 -14.308594 C 15.339844 -15.496094 14.519531 -16.425781 13.445312 -17.097656 C 12.375 -17.765625 11.0625 -18.101562 9.511719 -18.101562 L 5.027344 -18.101562 L 5.027344 -2.296875 L 9.511719 -2.296875 C 11.082031 -2.296875 12.402344 -2.648438 13.476562 -3.347656 C 14.546875 -4.046875 15.363281 -4.996094 15.917969 -6.191406 C 16.472656 -7.390625 16.75 -8.734375 16.75 -10.230469 Z M 16.75 -10.230469 "/></g></g></g><g fill="#ffffff" fill-opacity="1"><g transform="translate(438.535215, 225.044179)"><g><path d="M 16.292969 -2.296875 L 16.292969 0 L 2.441406 0 L 2.441406 -20.398438 L 16.03125 -20.398438 L 16.03125 -18.101562 L 5.027344 -18.101562 L 5.027344 -11.492188 L 14.597656 -11.492188 L 14.597656 -9.339844 L 5.027344 -9.339844 L 5.027344 -2.296875 Z M 16.292969 -2.296875 "/></g></g></g><g fill="#ffffff" fill-opacity="1"><g transform="translate(460.224865, 225.044179)"><g><path d="M 14.421875 -16.117188 C 14.195312 -16.386719 13.886719 -16.644531 13.503906 -16.894531 C 13.121094 -17.144531 12.691406 -17.367188 12.210938 -17.570312 C 11.730469 -17.769531 11.210938 -17.933594 10.644531 -18.058594 C 10.082031 -18.183594 9.492188 -18.246094 8.878906 -18.246094 C 7.308594 -18.246094 6.148438 -17.949219 5.402344 -17.355469 C 4.65625 -16.761719 4.28125 -15.945312 4.28125 -14.914062 C 4.28125 -14.183594 4.472656 -13.609375 4.855469 -13.1875 C 5.238281 -12.765625 5.828125 -12.421875 6.621094 -12.152344 C 7.417969 -11.886719 8.429688 -11.609375 9.652344 -11.320312 C 11.070312 -11.015625 12.296875 -10.640625 13.332031 -10.199219 C 14.367188 -9.757812 15.160156 -9.171875 15.714844 -8.433594 C 16.273438 -7.695312 16.550781 -6.714844 16.550781 -5.488281 C 16.550781 -4.511719 16.363281 -3.664062 15.988281 -2.945312 C 15.617188 -2.226562 15.09375 -1.632812 14.421875 -1.164062 C 13.753906 -0.695312 12.96875 -0.347656 12.066406 -0.128906 C 11.167969 0.0898438 10.191406 0.199219 9.136719 0.199219 C 8.101562 0.199219 7.09375 0.0898438 6.105469 -0.128906 C 5.121094 -0.347656 4.183594 -0.671875 3.304688 -1.09375 C 2.421875 -1.511719 1.597656 -2.039062 0.832031 -2.671875 L 2.070312 -4.855469 C 2.375 -4.53125 2.773438 -4.210938 3.261719 -3.894531 C 3.75 -3.578125 4.304688 -3.285156 4.925781 -3.015625 C 5.550781 -2.75 6.226562 -2.535156 6.953125 -2.371094 C 7.679688 -2.207031 8.429688 -2.125 9.195312 -2.125 C 10.648438 -2.125 11.78125 -2.390625 12.585938 -2.917969 C 13.390625 -3.441406 13.792969 -4.214844 13.792969 -5.230469 C 13.792969 -5.996094 13.566406 -6.609375 13.117188 -7.066406 C 12.667969 -7.527344 12 -7.910156 11.121094 -8.21875 C 10.238281 -8.523438 9.164062 -8.832031 7.902344 -9.136719 C 6.523438 -9.480469 5.363281 -9.859375 4.425781 -10.273438 C 3.484375 -10.683594 2.78125 -11.226562 2.3125 -11.894531 C 1.84375 -12.566406 1.609375 -13.4375 1.609375 -14.511719 C 1.609375 -15.8125 1.925781 -16.914062 2.558594 -17.8125 C 3.1875 -18.714844 4.0625 -19.394531 5.171875 -19.855469 C 6.28125 -20.3125 7.539062 -20.542969 8.9375 -20.542969 C 9.855469 -20.542969 10.710938 -20.449219 11.507812 -20.257812 C 12.300781 -20.066406 13.042969 -19.796875 13.734375 -19.453125 C 14.421875 -19.105469 15.054688 -18.695312 15.628906 -18.214844 Z M 14.421875 -16.117188 "/></g></g></g><g fill="#ffffff" fill-opacity="1"><g transform="translate(482.029397, 225.044179)"><g><path d="M 2.441406 0 L 2.441406 -20.398438 L 9.511719 -20.398438 C 11.695312 -20.398438 13.519531 -19.945312 14.984375 -19.035156 C 16.449219 -18.125 17.546875 -16.898438 18.273438 -15.359375 C 19 -13.816406 19.367188 -12.105469 19.367188 -10.230469 C 19.367188 -8.160156 18.964844 -6.359375 18.160156 -4.828125 C 17.355469 -3.292969 16.214844 -2.105469 14.738281 -1.265625 C 13.265625 -0.421875 11.523438 0 9.511719 0 Z M 16.75 -10.230469 C 16.75 -11.761719 16.46875 -13.121094 15.902344 -14.308594 C 15.339844 -15.496094 14.519531 -16.425781 13.445312 -17.097656 C 12.375 -17.765625 11.0625 -18.101562 9.511719 -18.101562 L 5.027344 -18.101562 L 5.027344 -2.296875 L 9.511719 -2.296875 C 11.082031 -2.296875 12.402344 -2.648438 13.476562 -3.347656 C 14.546875 -4.046875 15.363281 -4.996094 15.917969 -6.191406 C 16.472656 -7.390625 16.75 -8.734375 16.75 -10.230469 Z M 16.75 -10.230469 "/></g></g></g><g fill="#ffffff" fill-opacity="1"><g transform="translate(506.907653, 225.044179)"><g><path d="M 16.292969 -2.296875 L 16.292969 0 L 2.441406 0 L 2.441406 -20.398438 L 16.03125 -20.398438 L 16.03125 -18.101562 L 5.027344 -18.101562 L 5.027344 -11.492188 L 14.597656 -11.492188 L 14.597656 -9.339844 L 5.027344 -9.339844 L 5.027344 -2.296875 Z M 16.292969 -2.296875 "/></g></g></g><g fill="#ffffff" fill-opacity="1"><g transform="translate(528.59728, 225.044179)"><g/></g></g><g fill="#ffffff" fill-opacity="1"><g transform="translate(540.17525, 225.044179)"><g><path d="M 2.441406 0 L 2.441406 -20.398438 L 10.945312 -20.398438 C 11.847656 -20.398438 12.671875 -20.214844 13.417969 -19.839844 C 14.164062 -19.464844 14.816406 -18.96875 15.371094 -18.34375 C 15.925781 -17.722656 16.359375 -17.023438 16.664062 -16.25 C 16.972656 -15.472656 17.125 -14.683594 17.125 -13.878906 C 17.125 -12.765625 16.875 -11.707031 16.378906 -10.703125 C 15.878906 -9.695312 15.179688 -8.882812 14.28125 -8.261719 C 13.378906 -7.636719 12.328125 -7.328125 11.121094 -7.328125 L 5.027344 -7.328125 L 5.027344 0 Z M 5.027344 -9.625 L 10.976562 -9.625 C 11.683594 -9.625 12.300781 -9.816406 12.828125 -10.199219 C 13.355469 -10.582031 13.769531 -11.101562 14.066406 -11.75 C 14.363281 -12.402344 14.511719 -13.113281 14.511719 -13.878906 C 14.511719 -14.683594 14.335938 -15.40625 13.992188 -16.046875 C 13.648438 -16.6875 13.199219 -17.191406 12.640625 -17.554688 C 12.085938 -17.917969 11.472656 -18.101562 10.804688 -18.101562 L 5.027344 -18.101562 Z M 5.027344 -9.625 "/></g></g></g><g fill="#ffffff" fill-opacity="1"><g transform="translate(562.381949, 225.044179)"><g><path d="M 10.71875 0.144531 C 9.28125 0.144531 7.976562 -0.144531 6.808594 -0.71875 C 5.640625 -1.292969 4.628906 -2.074219 3.777344 -3.058594 C 2.925781 -4.046875 2.269531 -5.15625 1.808594 -6.394531 C 1.351562 -7.628906 1.121094 -8.898438 1.121094 -10.199219 C 1.121094 -11.558594 1.363281 -12.859375 1.851562 -14.09375 C 2.339844 -15.328125 3.023438 -16.429688 3.894531 -17.398438 C 4.765625 -18.363281 5.785156 -19.132812 6.953125 -19.695312 C 8.121094 -20.261719 9.394531 -20.542969 10.773438 -20.542969 C 12.210938 -20.542969 13.515625 -20.246094 14.683594 -19.652344 C 15.851562 -19.058594 16.855469 -18.265625 17.699219 -17.269531 C 18.542969 -16.273438 19.191406 -15.160156 19.652344 -13.933594 C 20.113281 -12.710938 20.34375 -11.453125 20.34375 -10.171875 C 20.34375 -8.8125 20.101562 -7.511719 19.625 -6.277344 C 19.144531 -5.042969 18.46875 -3.941406 17.597656 -2.972656 C 16.726562 -2.007812 15.707031 -1.246094 14.539062 -0.691406 C 13.371094 -0.132812 12.097656 0.144531 10.71875 0.144531 Z M 3.734375 -10.199219 C 3.734375 -9.164062 3.902344 -8.164062 4.238281 -7.199219 C 4.574219 -6.230469 5.046875 -5.371094 5.660156 -4.625 C 6.273438 -3.878906 7.011719 -3.285156 7.871094 -2.84375 C 8.734375 -2.402344 9.691406 -2.183594 10.746094 -2.183594 C 11.835938 -2.183594 12.816406 -2.414062 13.675781 -2.875 C 14.539062 -3.332031 15.269531 -3.945312 15.875 -4.710938 C 16.476562 -5.476562 16.9375 -6.339844 17.253906 -7.296875 C 17.570312 -8.253906 17.726562 -9.222656 17.726562 -10.199219 C 17.726562 -11.234375 17.558594 -12.230469 17.226562 -13.1875 C 16.890625 -14.144531 16.410156 -15.003906 15.789062 -15.757812 C 15.164062 -16.515625 14.429688 -17.109375 13.574219 -17.542969 C 12.722656 -17.972656 11.78125 -18.1875 10.746094 -18.1875 C 9.652344 -18.1875 8.675781 -17.960938 7.816406 -17.511719 C 6.953125 -17.0625 6.21875 -16.453125 5.617188 -15.6875 C 5.015625 -14.921875 4.550781 -14.066406 4.222656 -13.117188 C 3.898438 -12.167969 3.734375 -11.195312 3.734375 -10.199219 Z M 3.734375 -10.199219 "/></g></g></g><g fill="#ffffff" fill-opacity="1"><g transform="translate(588.179441, 225.044179)"><g><path d="M 2.441406 0 L 2.441406 -20.398438 L 5.027344 -20.398438 L 5.027344 -2.296875 L 16.40625 -2.296875 L 16.40625 0 Z M 2.441406 0 "/></g></g></g><g fill="#ffffff" fill-opacity="1"><g transform="translate(609.265819, 225.044179)"><g><path d="M 8.648438 -20.398438 L 10.832031 -20.398438 L 19.164062 0 L 16.40625 0 L 13.992188 -5.976562 L 5.429688 -5.976562 L 3.046875 0 L 0.289062 0 Z M 13.417969 -7.988281 L 9.742188 -17.410156 L 5.949219 -7.988281 Z M 13.417969 -7.988281 "/></g></g></g><g fill="#ffffff" fill-opacity="1"><g transform="translate(632.276737, 225.044179)"><g><path d="M 1.121094 -10.34375 C 1.121094 -11.589844 1.335938 -12.808594 1.765625 -14.007812 C 2.199219 -15.203125 2.832031 -16.296875 3.664062 -17.28125 C 4.496094 -18.269531 5.515625 -19.054688 6.722656 -19.636719 C 7.929688 -20.222656 9.300781 -20.515625 10.832031 -20.515625 C 12.652344 -20.515625 14.214844 -20.097656 15.515625 -19.265625 C 16.816406 -18.433594 17.785156 -17.363281 18.417969 -16.0625 L 16.378906 -14.738281 C 15.976562 -15.601562 15.460938 -16.285156 14.839844 -16.792969 C 14.21875 -17.300781 13.546875 -17.660156 12.828125 -17.871094 C 12.109375 -18.082031 11.40625 -18.1875 10.71875 -18.1875 C 9.585938 -18.1875 8.585938 -17.957031 7.714844 -17.5 C 6.84375 -17.039062 6.109375 -16.425781 5.515625 -15.660156 C 4.921875 -14.894531 4.476562 -14.035156 4.179688 -13.085938 C 3.882812 -12.140625 3.734375 -11.1875 3.734375 -10.230469 C 3.734375 -9.175781 3.914062 -8.160156 4.265625 -7.183594 C 4.621094 -6.207031 5.113281 -5.34375 5.746094 -4.597656 C 6.378906 -3.851562 7.125 -3.257812 7.988281 -2.816406 C 8.847656 -2.375 9.789062 -2.15625 10.804688 -2.15625 C 11.511719 -2.15625 12.238281 -2.28125 12.988281 -2.527344 C 13.734375 -2.777344 14.433594 -3.164062 15.085938 -3.691406 C 15.734375 -4.21875 16.253906 -4.902344 16.636719 -5.746094 L 18.789062 -4.570312 C 18.371094 -3.554688 17.71875 -2.691406 16.835938 -1.984375 C 15.957031 -1.273438 14.972656 -0.738281 13.890625 -0.375 C 12.808594 -0.0078125 11.742188 0.171875 10.6875 0.171875 C 9.289062 0.171875 8.007812 -0.128906 6.839844 -0.734375 C 5.667969 -1.335938 4.660156 -2.140625 3.808594 -3.144531 C 2.953125 -4.152344 2.292969 -5.28125 1.824219 -6.535156 C 1.355469 -7.792969 1.121094 -9.058594 1.121094 -10.34375 Z M 1.121094 -10.34375 "/></g></g></g><g fill="#ffffff" fill-opacity="1"><g transform="translate(656.178279, 225.044179)"><g><path d="M 2.441406 -20.398438 L 5.027344 -20.398438 L 5.027344 0 L 2.441406 0 Z M 2.441406 -20.398438 "/></g></g></g><g fill="#ffffff" fill-opacity="1"><g transform="translate(667.957332, 225.044179)"><g><path d="M 10.71875 0.144531 C 9.28125 0.144531 7.976562 -0.144531 6.808594 -0.71875 C 5.640625 -1.292969 4.628906 -2.074219 3.777344 -3.058594 C 2.925781 -4.046875 2.269531 -5.15625 1.808594 -6.394531 C 1.351562 -7.628906 1.121094 -8.898438 1.121094 -10.199219 C 1.121094 -11.558594 1.363281 -12.859375 1.851562 -14.09375 C 2.339844 -15.328125 3.023438 -16.429688 3.894531 -17.398438 C 4.765625 -18.363281 5.785156 -19.132812 6.953125 -19.695312 C 8.121094 -20.261719 9.394531 -20.542969 10.773438 -20.542969 C 12.210938 -20.542969 13.515625 -20.246094 14.683594 -19.652344 C 15.851562 -19.058594 16.855469 -18.265625 17.699219 -17.269531 C 18.542969 -16.273438 19.191406 -15.160156 19.652344 -13.933594 C 20.113281 -12.710938 20.34375 -11.453125 20.34375 -10.171875 C 20.34375 -8.8125 20.101562 -7.511719 19.625 -6.277344 C 19.144531 -5.042969 18.46875 -3.941406 17.597656 -2.972656 C 16.726562 -2.007812 15.707031 -1.246094 14.539062 -0.691406 C 13.371094 -0.132812 12.097656 0.144531 10.71875 0.144531 Z M 3.734375 -10.199219 C 3.734375 -9.164062 3.902344 -8.164062 4.238281 -7.199219 C 4.574219 -6.230469 5.046875 -5.371094 5.660156 -4.625 C 6.273438 -3.878906 7.011719 -3.285156 7.871094 -2.84375 C 8.734375 -2.402344 9.691406 -2.183594 10.746094 -2.183594 C 11.835938 -2.183594 12.816406 -2.414062 13.675781 -2.875 C 14.539062 -3.332031 15.269531 -3.945312 15.875 -4.710938 C 16.476562 -5.476562 16.9375 -6.339844 17.253906 -7.296875 C 17.570312 -8.253906 17.726562 -9.222656 17.726562 -10.199219 C 17.726562 -11.234375 17.558594 -12.230469 17.226562 -13.1875 C 16.890625 -14.144531 16.410156 -15.003906 15.789062 -15.757812 C 15.164062 -16.515625 14.429688 -17.109375 13.574219 -17.542969 C 12.722656 -17.972656 11.78125 -18.1875 10.746094 -18.1875 C 9.652344 -18.1875 8.675781 -17.960938 7.816406 -17.511719 C 6.953125 -17.0625 6.21875 -16.453125 5.617188 -15.6875 C 5.015625 -14.921875 4.550781 -14.066406 4.222656 -13.117188 C 3.898438 -12.167969 3.734375 -11.195312 3.734375 -10.199219 Z M 3.734375 -10.199219 "/></g></g></g><g fill="#ffffff" fill-opacity="1"><g transform="translate(693.754848, 225.044179)"><g><path d="M 5.027344 -15.628906 L 5.027344 0 L 2.441406 0 L 2.441406 -20.398438 L 4.625 -20.398438 L 17.097656 -4.453125 L 17.097656 -20.371094 L 19.683594 -20.371094 L 19.683594 0 L 17.324219 0 Z M 5.027344 -15.628906 "/></g></g></g><g fill="#ffffff" fill-opacity="1"><g transform="translate(720.184293, 225.044179)"><g><path d="M 16.292969 -2.296875 L 16.292969 0 L 2.441406 0 L 2.441406 -20.398438 L 16.03125 -20.398438 L 16.03125 -18.101562 L 5.027344 -18.101562 L 5.027344 -11.492188 L 14.597656 -11.492188 L 14.597656 -9.339844 L 5.027344 -9.339844 L 5.027344 -2.296875 Z M 16.292969 -2.296875 "/></g></g></g><g fill="#ffffff" fill-opacity="1"><g transform="translate(741.873944, 225.044179)"><g><path d="M 14.421875 -16.117188 C 14.195312 -16.386719 13.886719 -16.644531 13.503906 -16.894531 C 13.121094 -17.144531 12.691406 -17.367188 12.210938 -17.570312 C 11.730469 -17.769531 11.210938 -17.933594 10.644531 -18.058594 C 10.082031 -18.183594 9.492188 -18.246094 8.878906 -18.246094 C 7.308594 -18.246094 6.148438 -17.949219 5.402344 -17.355469 C 4.65625 -16.761719 4.28125 -15.945312 4.28125 -14.914062 C 4.28125 -14.183594 4.472656 -13.609375 4.855469 -13.1875 C 5.238281 -12.765625 5.828125 -12.421875 6.621094 -12.152344 C 7.417969 -11.886719 8.429688 -11.609375 9.652344 -11.320312 C 11.070312 -11.015625 12.296875 -10.640625 13.332031 -10.199219 C 14.367188 -9.757812 15.160156 -9.171875 15.714844 -8.433594 C 16.273438 -7.695312 16.550781 -6.714844 16.550781 -5.488281 C 16.550781 -4.511719 16.363281 -3.664062 15.988281 -2.945312 C 15.617188 -2.226562 15.09375 -1.632812 14.421875 -1.164062 C 13.753906 -0.695312 12.96875 -0.347656 12.066406 -0.128906 C 11.167969 0.0898438 10.191406 0.199219 9.136719 0.199219 C 8.101562 0.199219 7.09375 0.0898438 6.105469 -0.128906 C 5.121094 -0.347656 4.183594 -0.671875 3.304688 -1.09375 C 2.421875 -1.511719 1.597656 -2.039062 0.832031 -2.671875 L 2.070312 -4.855469 C 2.375 -4.53125 2.773438 -4.210938 3.261719 -3.894531 C 3.75 -3.578125 4.304688 -3.285156 4.925781 -3.015625 C 5.550781 -2.75 6.226562 -2.535156 6.953125 -2.371094 C 7.679688 -2.207031 8.429688 -2.125 9.195312 -2.125 C 10.648438 -2.125 11.78125 -2.390625 12.585938 -2.917969 C 13.390625 -3.441406 13.792969 -4.214844 13.792969 -5.230469 C 13.792969 -5.996094 13.566406 -6.609375 13.117188 -7.066406 C 12.667969 -7.527344 12 -7.910156 11.121094 -8.21875 C 10.238281 -8.523438 9.164062 -8.832031 7.902344 -9.136719 C 6.523438 -9.480469 5.363281 -9.859375 4.425781 -10.273438 C 3.484375 -10.683594 2.78125 -11.226562 2.3125 -11.894531 C 1.84375 -12.566406 1.609375 -13.4375 1.609375 -14.511719 C 1.609375 -15.8125 1.925781 -16.914062 2.558594 -17.8125 C 3.1875 -18.714844 4.0625 -19.394531 5.171875 -19.855469 C 6.28125 -20.3125 7.539062 -20.542969 8.9375 -20.542969 C 9.855469 -20.542969 10.710938 -20.449219 11.507812 -20.257812 C 12.300781 -20.066406 13.042969 -19.796875 13.734375 -19.453125 C 14.421875 -19.105469 15.054688 -18.695312 15.628906 -18.214844 Z M 14.421875 -16.117188 "/></g></g></g><g clip-path="url(#d76d27ce64)"><g clip-path="url(#c46a3ca4e6)"><path fill="#e10000" d="M 155.15625 202.050781 L 180.359375 202.050781 L 180.359375 227.253906 L 155.15625 227.253906 Z M 155.15625 202.050781 " fill-opacity="1" fill-rule="nonzero"/></g></g></svg>